# xmcd
#
# Track frame offsets: 
#        150
#        18349
#        28322
#        46070
#        59121
#        70583
#        83384
#        98880
#        112599
#        127399
#        140004
#        152765
#        169412
#        182826
#        196818
#        211763
#
# Disc length: 2958 seconds
#
# Revision: 0
# Processed by: cddbd v1.5.2PL0 Copyright (c) Steve Scherf et al.
# Submitted via: ExactAudioCopy v1.0b3
#
DISCID=db0b8c10
DTITLE=Gilson De Souza - Pôxa
DYEAR=1975
DGENRE=Latin-Br-Samba
TTITLE0=Dor De Poeta
TTITLE1=O Incomodado È Quem Se Muda
TTITLE2=Pôxa
TTITLE3=Se O Amor For Coisa Certa
TTITLE4=Eh Tata Eh
TTITLE5=Canção Pra Quem Vem
TTITLE6=Quem É De Samba Chora
TTITLE7=Ilsão Colorida
TTITLE8=Só Deus Sabe
TTITLE9=Gavião Calçudo
TTITLE10=Noite Vadia
TTITLE11=É Manhã
TTITLE12=Conseqüências (Bônus)
TTITLE13=Meu Violão (Bônus)
TTITLE14=Oi (Bônus)
TTITLE15=Preto E Branco (Bônus)
EXTD=
EXTT0=
EXTT1=
EXTT2=
EXTT3=
EXTT4=
EXTT5=
EXTT6=
EXTT7=
EXTT8=
EXTT9=
EXTT10=
EXTT11=
EXTT12=
EXTT13=
EXTT14=
EXTT15=
PLAYORDER=
